<?xml version="1.0" standalone="no"?><!DOCTYPE svg PUBLIC "-//W3C//DTD SVG 1.1//EN" "http://www.w3.org/Graphics/SVG/1.1/DTD/svg11.dtd"><svg t="1684206027275" class="icon" viewBox="0 0 1024 1024" version="1.1" xmlns="http://www.w3.org/2000/svg" p-id="1007" xmlns:xlink="http://www.w3.org/1999/xlink" width="200" height="200"><path d="M1024 160v704c0 88-72 160-160 160H160c-88 0-160-72-160-160V160C0 72 72 0 160 0h704c88 0 160 72 160 160z" fill="#1A5A8E" p-id="1008"></path><path d="M1024 480.56V864c0 88-72 160-160 160H541.2L258.72 720.96 348.48 448l88.88-145.76 56.88 39.52 87.36 28 90.8-31.04-102.08-79.68 144.24-39.68L1024 480.56z" fill="#164D72" p-id="1009"></path><path d="M517.84 667.2c-21.28 69.6-51.2 84.16-72.48 84.16H315.36c-64 0-112.24-102.08-112.24-237.6s48.24-237.6 112.24-237.6h130c19.36 0 46.8 12.24 67.84 70.32l-39.68 14.32c-12.56-34.64-24.8-42.48-28.16-42.48-3.36 0-11.68 6.48-20.56 24.32-2.16 4.32-4 8.48-5.68 12.8 0 0.08 0 0.08-0.08 0.16-0.8 2-1.52 4.16-2.32 6.32-1.36 3.84-2.72 7.76-4 11.92l-0.24 1.12c-1.36 4.4-2.56 8.96-3.68 13.76l-1.6 6.56c-1.12 4.64-2 9.12-2.88 13.6-6.08 31.76-9.28 68-9.28 104.72 0 5.92 0.08 11.76 0.24 17.6v0.08c0.32 10.88 0.96 22.32 1.84 33.68v0.08c0.16 2.16 0.32 4.48 0.56 6.64 0.08 1.28 0.24 2.56 0.32 3.84l0.48 4.56v0.32c1.36 11.84 2.96 22.8 4.72 32.56l1.6 8.4 2.32 10.72 1.6 6.56c1.2 4.88 2.56 9.68 3.92 14.24 0.08 0.32 0.16 0.64 0.24 1.04 1.36 4.32 2.72 8.48 4.16 12.4 0.56 1.68 1.2 3.36 1.84 4.96v0.16l0.08 0.08v0.08c1.68 4.4 3.6 8.72 5.76 12.8 8.88 17.92 17.12 24.4 20.56 24.4 5.04 0 19.52-13.28 32.08-54.32l40.48 12.72z" fill="#FFFFFF" p-id="1010"></path><path d="M627.6 384.72c-8 0-15.92-0.16-23.76-0.32-7.52-0.24-14.96-0.4-22.24-0.4H401.68v-42.24H581.6c7.6 0 15.36 0.16 23.12 0.32 22.96 0.56 46.64 1.04 67.68-3.44 16.64-3.52 30.16-14.56 36.24-29.44 5.68-14 3.92-29.04-4.96-42.16-12.4-18.48-34.08-23.44-50.24-21.92-20.48 1.92-37.04 13.28-44.32 30.4l-38.88-16.48c13.2-31.12 43.52-52.48 79.2-55.92 36-3.44 70.24 12.08 89.28 40.4 16.64 24.8 19.92 54.56 8.96 81.6-11.28 27.92-36.16 48.4-66.56 54.88-17.76 3.84-35.76 4.72-53.52 4.72zM659.36 821.36c-3.28 0-6.56-0.16-9.92-0.48-35.6-3.36-65.92-24.8-79.12-55.92l38.88-16.48c7.28 17.04 23.84 28.4 44.32 30.4 16.16 1.6 37.84-3.44 50.24-21.92 8.88-13.2 10.64-28.16 4.96-42.24-6-14.88-19.6-25.92-36.24-29.44-20.96-4.48-44.72-3.92-67.68-3.44-7.76 0.16-15.52 0.32-23.12 0.32h-180V640H581.6c7.28 0 14.72-0.16 22.16-0.32 25.36-0.56 51.6-1.2 77.44 4.32 30.4 6.48 55.28 26.96 66.56 54.88 10.96 27.04 7.68 56.72-8.96 81.6-17.28 25.68-47.12 40.88-79.44 40.88zM820.8 660.88l-42.24-0.96 0.08-2.8c0.08-3.28 0-6.48-0.08-9.6-0.88-23.44-7.2-53.92-32.24-66.16-21.36-10.48-48.4-10.48-74.56-10.48H370.48v-42.24h301.28c29.52 0 62.96 0 93.12 14.72 34.64 16.96 53.92 52.4 55.84 102.48 0.16 3.92 0.16 7.76 0.16 11.6l-0.08 3.44z" fill="#FFFFFF" p-id="1011"></path></svg>